<svg xmlns="http://www.w3.org/2000/svg" viewBox="0 0 64 64" width="64" height="64">
  <defs>
    <linearGradient id="gearGrad" x1="0%" y1="0%" x2="100%" y2="100%">
      <stop offset="0%" style="stop-color:#d4af37"/>
      <stop offset="100%" style="stop-color:#b8941f"/>
    </linearGradient>
  </defs>

  <!-- Gear/cog -->
  <!-- Outer gear teeth -->
  <path d="M 32 6 L 36 12 L 40 6 L 44 12 L 48 8 L 50 14 L 56 12 L 54 18 L 58 20 L 54 26 L 58 28 L 54 34 L 58 36 L 52 38 L 54 44 L 48 42 L 44 48 L 40 42 L 36 48 L 32 42 L 28 48 L 24 42 L 20 48 L 16 42 L 12 46 L 10 40 L 6 42 L 8 36 L 4 34 L 8 28 L 4 26 L 10 24 L 6 18 L 12 20 L 14 14 L 20 16 L 24 12 L 28 18 Z"
        fill="url(#gearGrad)" stroke="#8b7355" stroke-width="2"/>

  <!-- Center circle -->
  <circle cx="32" cy="27" r="12" fill="#1a0f0a" stroke="#d4af37" stroke-width="2"/>

  <!-- Inner circle details -->
  <circle cx="32" cy="27" r="6" fill="none" stroke="#d4af37" stroke-width="1.5"/>

  <!-- Wrench overlay -->
  <g transform="translate(10, 10)">
    <rect x="35" y="28" width="4" height="20" rx="2" fill="#c0c0c0" stroke="#808080" stroke-width="1"/>
    <path d="M 35 28 L 31 24 L 31 20 Q 31 18 33 18 L 41 18 Q 43 18 43 20 L 43 24 L 39 28 Z"
          fill="#c0c0c0" stroke="#808080" stroke-width="1"/>
  </g>
</svg>
