<svg xmlns="http://www.w3.org/2000/svg" viewBox="0 0 64 64" width="64" height="64">
  <defs>
    <linearGradient id="swordGrad" x1="0%" y1="0%" x2="0%" y2="100%">
      <stop offset="0%" style="stop-color:#f0d06b"/>
      <stop offset="100%" style="stop-color:#d4af37"/>
    </linearGradient>
  </defs>

  <!-- Crossed swords -->
  <!-- Sword 1 -->
  <g>
    <rect x="20" y="12" width="6" height="40" fill="#c0c0c0" stroke="#808080" stroke-width="1" transform="rotate(-30 23 32)"/>
    <path d="M 18 10 L 28 10 L 26 6 L 20 6 Z" fill="url(#swordGrad)" transform="rotate(-30 23 8)"/>
    <rect x="21" y="48" width="4" height="6" rx="1" fill="url(#swordGrad)" transform="rotate(-30 23 51)"/>
  </g>

  <!-- Sword 2 -->
  <g>
    <rect x="38" y="12" width="6" height="40" fill="#c0c0c0" stroke="#808080" stroke-width="1" transform="rotate(30 41 32)"/>
    <path d="M 36 10 L 46 10 L 44 6 L 38 6 Z" fill="url(#swordGrad)" transform="rotate(30 41 8)"/>
    <rect x="39" y="48" width="4" height="6" rx="1" fill="url(#swordGrad)" transform="rotate(30 41 51)"/>
  </g>

  <!-- Initiative number -->
  <circle cx="32" cy="32" r="14" fill="#8b0000" stroke="url(#swordGrad)" stroke-width="2"/>
  <text x="32" y="38" font-size="16" font-weight="bold" text-anchor="middle" fill="#d4af37">1</text>
</svg>
